<?xml version="1.0" encoding="iso-8859-1"?>
<!-- Generator: Adobe Illustrator 19.0.0, SVG Export Plug-In . SVG Version: 6.00 Build 0)  -->
<svg version="1.1" id="Layer_1" xmlns="http://www.w3.org/2000/svg" xmlns:xlink="http://www.w3.org/1999/xlink" x="0px" y="0px"
	 viewBox="0 0 512 512" style="enable-background:new 0 0 512 512;" xml:space="preserve">
<path style="fill:#E7ECFD;" d="M300.522,512H16.696C7.475,512,0,504.525,0,495.304V16.696C0,7.475,7.475,0,16.696,0h267.13
	c9.22,0,16.696,7.475,16.696,16.696V512z"/>
<path style="fill:#DAE0F0;" d="M283.826,0H150.261v512h150.261V16.696C300.522,7.475,293.047,0,283.826,0z"/>
<path style="fill:#B8BDC9;" d="M489.739,512H300.522V77.913h194.783c9.22,0,16.696,7.475,16.696,16.696v395.829L489.739,512z"/>
<g>
	<path style="fill:#95D3FC;" d="M83.478,133.565c-9.217,0-16.696-7.479-16.696-16.696V94.609c0-9.217,7.479-16.696,16.696-16.696
		s16.696,7.479,16.696,16.696v22.261C100.174,126.087,92.695,133.565,83.478,133.565z"/>
	<path style="fill:#95D3FC;" d="M83.478,233.739c-9.217,0-16.696-7.479-16.696-16.696v-33.391c0-9.217,7.479-16.696,16.696-16.696
		s16.696,7.479,16.696,16.696v33.391C100.174,226.261,92.695,233.739,83.478,233.739z"/>
</g>
<g>
	<path style="fill:#5AAAE7;" d="M217.043,133.565c-9.217,0-16.696-7.479-16.696-16.696V94.609c0-9.217,7.479-16.696,16.696-16.696
		s16.696,7.479,16.696,16.696v22.261C233.739,126.087,226.261,133.565,217.043,133.565z"/>
	<path style="fill:#5AAAE7;" d="M217.043,233.739c-9.217,0-16.696-7.479-16.696-16.696v-33.391c0-9.217,7.479-16.696,16.696-16.696
		s16.696,7.479,16.696,16.696v33.391C233.739,226.261,226.261,233.739,217.043,233.739z"/>
	<path style="fill:#5AAAE7;" d="M217.043,347.892c-9.217,0-16.696-7.479-16.696-16.696v-47.37c0-9.217,7.479-16.696,16.696-16.696
		s16.696,7.479,16.696,16.696v47.37C233.739,340.413,226.261,347.892,217.043,347.892z"/>
	<path style="fill:#5AAAE7;" d="M428.522,178.087h-77.913c-9.217,0-16.696-7.479-16.696-16.696s7.479-16.696,16.696-16.696h77.913
		c9.217,0,16.696,7.479,16.696,16.696S437.739,178.087,428.522,178.087z"/>
	<path style="fill:#5AAAE7;" d="M428.522,244.87h-77.913c-9.217,0-16.696-7.479-16.696-16.696s7.479-16.696,16.696-16.696h77.913
		c9.217,0,16.696,7.479,16.696,16.696S437.739,244.87,428.522,244.87z"/>
	<path style="fill:#5AAAE7;" d="M428.522,311.652h-77.913c-9.217,0-16.696-7.479-16.696-16.696c0-9.217,7.479-16.696,16.696-16.696
		h77.913c9.217,0,16.696,7.479,16.696,16.696C445.217,304.174,437.739,311.652,428.522,311.652z"/>
</g>
<g>
	<path style="fill:#95D3FC;" d="M83.478,333.913c-9.217,0-16.696-7.479-16.696-16.696v-33.391c0-9.217,7.479-16.696,16.696-16.696
		s16.696,7.479,16.696,16.696v33.391C100.174,326.435,92.695,333.913,83.478,333.913z"/>
	<path style="fill:#95D3FC;" d="M83.478,434.087c-9.217,0-16.696-7.479-16.696-16.696V384c0-9.217,7.479-16.696,16.696-16.696
		s16.696,7.479,16.696,16.696v33.391C100.174,426.608,92.695,434.087,83.478,434.087z"/>
	<path style="fill:#95D3FC;" d="M150.261,448.152c-9.217,0-16.696-7.479-16.696-16.696V384c0-9.217,7.479-16.696,16.696-16.696
		s16.696,7.479,16.696,16.696v47.457C166.957,440.674,159.478,448.152,150.261,448.152z"/>
</g>
<path style="fill:#5AAAE7;" d="M166.957,431.457V384c0-9.217-7.479-16.696-16.696-16.696v80.848
	C159.478,448.152,166.957,440.674,166.957,431.457z"/>
<path style="fill:#95D3FC;" d="M150.261,347.979c-9.217,0-16.696-7.479-16.696-16.696v-47.457c0-9.217,7.479-16.696,16.696-16.696
	s16.696,7.479,16.696,16.696v47.457C166.957,340.5,159.478,347.979,150.261,347.979z"/>
<path style="fill:#5AAAE7;" d="M166.957,331.283v-47.457c0-9.217-7.479-16.696-16.696-16.696v80.848
	C159.478,347.979,166.957,340.5,166.957,331.283z"/>
<path style="fill:#95D3FC;" d="M150.261,233.739c-9.217,0-16.696-7.479-16.696-16.696v-33.391c0-9.217,7.479-16.696,16.696-16.696
	s16.696,7.479,16.696,16.696v33.391C166.957,226.261,159.478,233.739,150.261,233.739z"/>
<path style="fill:#5AAAE7;" d="M166.957,217.043v-33.391c0-9.217-7.479-16.696-16.696-16.696v66.783
	C159.478,233.739,166.957,226.261,166.957,217.043z"/>
<path style="fill:#95D3FC;" d="M150.261,133.565c-9.217,0-16.696-7.479-16.696-16.696V94.609c0-9.217,7.479-16.696,16.696-16.696
	s16.696,7.479,16.696,16.696v22.261C166.957,126.087,159.478,133.565,150.261,133.565z"/>
<path style="fill:#5AAAE7;" d="M166.957,116.87V94.609c0-9.217-7.479-16.696-16.696-16.696v55.652
	C159.478,133.565,166.957,126.087,166.957,116.87z"/>
<path style="fill:#96CA3F;" d="M512,478.497v16.807c0,9.127-6.456,16.696-19.367,16.696h-361.85c-7.123,0-13.69-4.452-15.917-11.576
	c-7.235-22.261-3.005-44.188,9.127-61.106c14.136-19.256,38.4-30.163,62.887-26.936c13.023-23.04,39.847-37.064,66.783-33.391
	c10.908-18.922,28.383-29.83,46.859-32.946c3.673-0.668,7.457-1.002,11.13-1.002c22.595,0,45.19,11.353,57.99,33.948
	c26.936-3.673,53.76,10.351,66.783,33.391c14.692-2.003,29.607,1.224,42.184,8.459C500.758,433.753,512,456.014,512,478.497z"/>
<path style="fill:#86B639;" d="M512,478.497v16.807c0,9.127-6.456,16.696-19.367,16.696H300.522V346.045
	c3.673-0.668,7.457-1.002,11.13-1.002c22.595,0,45.19,11.353,57.99,33.948c26.936-3.673,53.76,10.351,66.783,33.391
	c14.692-2.003,29.607,1.224,42.184,8.459C500.758,433.753,512,456.014,512,478.497z"/>
<g>
</g>
<g>
</g>
<g>
</g>
<g>
</g>
<g>
</g>
<g>
</g>
<g>
</g>
<g>
</g>
<g>
</g>
<g>
</g>
<g>
</g>
<g>
</g>
<g>
</g>
<g>
</g>
<g>
</g>
</svg>
