<?xml version="1.0" encoding="iso-8859-1"?>
<!-- Generator: Adobe Illustrator 19.0.0, SVG Export Plug-In . SVG Version: 6.00 Build 0)  -->
<svg version="1.1" id="Layer_1" xmlns="http://www.w3.org/2000/svg" xmlns:xlink="http://www.w3.org/1999/xlink" x="0px" y="0px"
	 viewBox="0 0 495 495" style="enable-background:new 0 0 495 495;" xml:space="preserve">
<g>
	<polygon style="fill:#FFDAAA;" points="412.82,108.79 330.63,189.87 330.63,495 412.82,495 412.82,405 392.815,405 
		392.815,340.263 412.82,340.263 412.82,299.763 392.815,299.763 392.815,235.026 412.82,235.026 412.82,108.79 495,189.87 	"/>
	<polygon style="fill:#FFC477;" points="412.82,235.026 432.815,235.026 432.815,299.763 412.82,299.763 412.82,340.263 
		432.815,340.263 432.815,405 412.82,405 412.82,495 495,495 495,189.87 412.82,108.79 	"/>
	<polygon style="fill:#FFDAAA;" points="62.185,405 62.185,340.263 82.18,340.263 82.18,299.763 62.185,299.763 62.185,235.026 
		82.18,235.026 82.18,108.79 164.37,189.87 82.18,108.79 0,189.87 0,495 82.18,495 82.18,405 	"/>
	<polygon style="fill:#FFC477;" points="82.18,108.79 82.18,235.026 102.185,235.026 102.185,299.763 82.18,299.763 82.18,340.263 
		102.185,340.263 102.185,405 82.18,405 82.18,495 164.37,495 164.37,189.87 	"/>
	<rect x="392.815" y="340.263" style="fill:#FF0C38;" width="40" height="64.737"/>
	<rect x="392.815" y="235.026" style="fill:#FF0C38;" width="40" height="64.737"/>
	<path style="fill:#FF5023;" d="M230.089,405v-64.737h20.231v-40.5h-20.231v-64.737h20.231v-40.5h-20.231v-64.737h20.231V0
		c-23.91,0-43.29,19.38-43.29,43.29h-42.66V495h85.95v-90H230.089z"/>
	<path style="fill:#FF5023;" d="M292.721,34.565c0.288,1.409,0.508,2.843,0.656,4.299C293.229,37.408,293.009,35.974,292.721,34.565
		z"/>
	<path style="fill:#FF5023;" d="M330.63,43.29H293.6c0-1.495-0.076-2.971-0.224-4.426c0.148,1.455,0.224,2.932,0.224,4.426H330.63z"
		/>
	<path style="fill:#FF0C38;" d="M330.63,43.29H293.6c0-1.494-0.076-2.971-0.224-4.426c-0.148-1.456-0.368-2.89-0.656-4.299
		c-0.432-2.114-1.019-4.171-1.747-6.16c-3.156-8.62-8.973-15.956-16.456-21.012c-1.151-0.778-2.342-1.501-3.568-2.168
		c-1.84-1-3.76-1.87-5.749-2.598c-0.663-0.243-1.333-0.47-2.011-0.68C259.124,0.681,254.801,0,250.32,0v129.789h19.769v64.737
		H250.32v40.5h19.769v64.737H250.32v40.5h19.769V405H250.32v90h80.31V43.29z"/>
	<rect x="230.089" y="340.263" style="fill:#FFA733;" width="40" height="64.737"/>
	<rect x="230.089" y="235.026" style="fill:#FFA733;" width="40" height="64.737"/>
	<rect x="230.089" y="129.789" style="fill:#FFA733;" width="40" height="64.737"/>
	<rect x="62.185" y="340.263" style="fill:#FF0C38;" width="40" height="64.737"/>
	<rect x="62.185" y="235.026" style="fill:#FF0C38;" width="40" height="64.737"/>
</g>
<g>
</g>
<g>
</g>
<g>
</g>
<g>
</g>
<g>
</g>
<g>
</g>
<g>
</g>
<g>
</g>
<g>
</g>
<g>
</g>
<g>
</g>
<g>
</g>
<g>
</g>
<g>
</g>
<g>
</g>
</svg>
