<?xml version="1.0" encoding="iso-8859-1"?>
<!-- Generator: Adobe Illustrator 19.0.0, SVG Export Plug-In . SVG Version: 6.00 Build 0)  -->
<svg version="1.1" id="Layer_1" xmlns="http://www.w3.org/2000/svg" xmlns:xlink="http://www.w3.org/1999/xlink" x="0px" y="0px"
	 viewBox="0 0 512 512" style="enable-background:new 0 0 512 512;" xml:space="preserve">
<path style="fill:#C9D5E3;" d="M256,32C136.704,32,40,128.704,40,248v56c0,8.84,7.16,16,16,16s16-7.16,16-16v-56
	c0-101.624,82.376-184,184-184s184,82.376,184,184v56c0,8.84,7.16,16,16,16s16-7.16,16-16v-56C472,128.704,375.296,32,256,32z"/>
<path style="fill:#748B9E;" d="M379.84,112L379.84,112c-70.128-63.592-177.072-63.592-247.2,0l0,0
	c-8.856,8.184-16.896,17.216-24,26.96l43.44,10.64c5.064,1.296,10.44,0.04,14.4-3.36c51.48-45.624,128.92-45.624,180.4,0
	c3.96,3.4,9.336,4.656,14.4,3.36l43.44-10.64C397.336,129.176,389,120.144,379.84,112z"/>
<path style="fill:#62798C;" d="M132.16,128L132.16,128c70.128-63.592,177.072-63.592,247.2,0l0,0c2.24,2.08,4.424,4.184,6.56,6.32
	c4.64,4.6,11.352,6.424,17.68,4.8l0,0c-7.104-9.744-15.144-18.776-24-26.96l0,0c-70.128-63.592-177.072-63.592-247.2,0l0,0
	c-8.856,8.184-16.896,17.216-24,26.96l0,0c6.328,1.624,13.04-0.2,17.68-4.8C127.896,132.024,129.92,129.92,132.16,128z"/>
<path style="fill:#748B9E;" d="M376,288h32c4.416,0,8,3.584,8,8v176c0,4.416-3.584,8-8,8h-32c-4.416,0-8-3.584-8-8V296
	C368,291.584,371.584,288,376,288z"/>
<g>
	<path style="fill:#DE333F;" d="M504,408h-8v-48h8c4.416,0,8,3.584,8,8v32C512,404.416,508.416,408,504,408z"/>
	<path style="fill:#DE333F;" d="M8,360h8v48H8c-4.416,0-8-3.584-8-8v-32C0,363.584,3.584,360,8,360z"/>
</g>
<path style="fill:#F6B545;" d="M464,304h-48v160h48c17.672,0,32-14.328,32-32v-96C496,318.328,481.672,304,464,304z"/>
<path style="fill:#748B9E;" d="M104,288h32c4.416,0,8,3.584,8,8v176c0,4.416-3.584,8-8,8h-32c-4.416,0-8-3.584-8-8V296
	C96,291.584,99.584,288,104,288z"/>
<path style="fill:#F6B545;" d="M48,464h48V304H48c-17.672,0-32,14.328-32,32v96C16,449.672,30.328,464,48,464z"/>
<g>
	<path style="fill:#62798C;" d="M384,312v144c0,8.84-7.16,16-16,16l0,0V296l0,0C376.84,296,384,303.16,384,312z"/>
	<path style="fill:#62798C;" d="M128,456V312c0-8.84,7.16-16,16-16l0,0v176l0,0C135.16,472,128,464.84,128,456z"/>
</g>
<g>
	<path style="fill:#F19920;" d="M80,320v120c0,4.416-3.584,8-8,8H48c-4.416,0-8,3.584-8,8l0,0c0,4.416,3.584,8,8,8h48V304
		C87.16,304,80,311.16,80,320z"/>
	<path style="fill:#F19920;" d="M480,352v80c0,8.84-7.16,16-16,16h-24c-4.416,0-8-3.584-8-8V320c0-8.84-7.16-16-16-16l0,0v160h48
		c17.672,0,32-14.328,32-32v-96C487.16,336,480,343.16,480,352z"/>
</g>
<g>
	<path style="fill:#B0C4D9;" d="M405.52,92.16c-3.272-3.048-8.392-2.872-11.44,0.4s-2.872,8.392,0.4,11.44
		c39.392,37.528,61.632,89.592,61.52,144v56h16v-56C472.2,189.12,448.16,132.76,405.52,92.16z"/>
	<rect x="56" y="248" style="fill:#B0C4D9;" width="16" height="56"/>
	<path style="fill:#B0C4D9;" d="M64,256c-4.416,0-8-3.584-8-8c-0.104-41.864,13.032-82.688,37.52-116.64
		c2.728-3.472,7.76-4.072,11.232-1.344c3.272,2.576,4.024,7.232,1.728,10.704C83.968,171.952,71.904,209.504,72,248
		C72,252.416,68.416,256,64,256z"/>
</g>
<g>
</g>
<g>
</g>
<g>
</g>
<g>
</g>
<g>
</g>
<g>
</g>
<g>
</g>
<g>
</g>
<g>
</g>
<g>
</g>
<g>
</g>
<g>
</g>
<g>
</g>
<g>
</g>
<g>
</g>
</svg>
