<?xml version="1.0" encoding="iso-8859-1"?>
<!-- Generator: Adobe Illustrator 19.0.0, SVG Export Plug-In . SVG Version: 6.00 Build 0)  -->
<svg version="1.1" id="Layer_1" xmlns="http://www.w3.org/2000/svg" xmlns:xlink="http://www.w3.org/1999/xlink" x="0px" y="0px"
	 viewBox="0 0 512 512" style="enable-background:new 0 0 512 512;" xml:space="preserve">
<path style="fill:#80D0E1;" d="M281.121,0h-25.127h-25.116c-13.056,0-23.641,10.585-23.641,23.641s10.585,23.641,23.641,23.641h1.48
	v53.078c0,13.054,10.582,23.638,23.636,23.641c0.002,0,0.003,0,0.005,0c13.056,0,23.641-10.585,23.641-23.641V47.281h1.48
	c13.056,0,23.641-10.585,23.641-23.641S294.178,0,281.121,0z"/>
<path style="fill:#48AEE2;" d="M281.121,0h-25.127l0,0v47.281v76.717c0.002,0,0.003,0,0.005,0c13.056,0,23.641-10.585,23.641-23.641
	V47.281h1.48c13.056,0,23.641-10.585,23.641-23.641S294.178,0,281.121,0z"/>
<path style="fill:#FFE49C;" d="M256,87.965c-0.002,0-0.003,0-0.005,0C138.903,87.968,43.983,182.89,43.983,299.983
	S138.903,511.997,255.995,512c0.002,0,0.003,0,0.005,0c117.094,0,212.017-94.924,212.017-212.017S373.094,87.965,256,87.965z"/>
<path style="fill:#48AEE2;" d="M350.481,151.515c-11.015-7.01-14.263-21.622-7.255-32.637l27.746-43.603
	c7.01-11.015,21.623-14.265,32.637-7.255c11.015,7.01,14.263,21.622,7.255,32.637l-27.746,43.603
	C376.106,155.28,361.489,158.522,350.481,151.515z"/>
<path style="fill:#FFC72D;" d="M256,87.965c-0.002,0-0.003,0-0.005,0V512c0.002,0,0.003,0,0.005,0
	c117.094,0,212.017-94.924,212.017-212.017S373.094,87.965,256,87.965z"/>
<path style="fill:#5AC2AD;" d="M238.186,284.44c-8.583,9.838-7.567,24.772,2.271,33.355c4.347,3.792,9.835,5.827,15.537,5.827
	v-59.593L238.186,284.44z"/>
<path style="fill:#1DA49C;" d="M334.867,209.589c-9.835-8.582-24.771-7.57-33.355,2.271l-45.516,52.169v59.593
	c6.589-0.002,13.146-2.742,17.819-8.099l63.325-72.58C345.723,233.106,344.704,218.173,334.867,209.589z"/>
<g>
</g>
<g>
</g>
<g>
</g>
<g>
</g>
<g>
</g>
<g>
</g>
<g>
</g>
<g>
</g>
<g>
</g>
<g>
</g>
<g>
</g>
<g>
</g>
<g>
</g>
<g>
</g>
<g>
</g>
</svg>
