<?xml version="1.0" encoding="iso-8859-1"?>
<!-- Generator: Adobe Illustrator 19.0.0, SVG Export Plug-In . SVG Version: 6.00 Build 0)  -->
<svg version="1.1" id="Layer_1" xmlns="http://www.w3.org/2000/svg" xmlns:xlink="http://www.w3.org/1999/xlink" x="0px" y="0px"
	 viewBox="0 0 512 512" style="enable-background:new 0 0 512 512;" xml:space="preserve">
<path style="fill:#5C5F66;" d="M100.174,111.304c-9.217,0-16.696-7.473-16.696-16.696V16.696C83.478,7.473,90.957,0,100.174,0
	s16.696,7.473,16.696,16.696v77.913C116.87,103.831,109.391,111.304,100.174,111.304z"/>
<path style="fill:#B8BFCC;" d="M183.652,77.913H16.696C7.479,77.913,0,85.386,0,94.609v400.696C0,504.527,7.479,512,16.696,512
	h166.957c9.217,0,16.696-7.473,16.696-16.696V94.609C200.348,85.386,192.869,77.913,183.652,77.913z"/>
<path style="fill:#CFD6E6;" d="M310.619,220.597c3.196-8.652-1.229-18.249-9.88-21.446l-144.696-53.424
	c-5.13-1.885-10.859-1.152-15.327,1.968c-4.478,3.12-7.151,8.234-7.151,13.696V512h161.391c9.217,0,16.696-7.473,16.696-16.696
	L310.619,220.597z"/>
<path style="fill:#5C5F66;" d="M395.13,77.913c-9.217,0-16.696-7.473-16.696-16.696V16.696C378.435,7.473,385.913,0,395.13,0
	c9.217,0,16.696,7.473,16.696,16.696v44.522C411.826,70.44,404.348,77.913,395.13,77.913z"/>
<path style="fill:#53565C;" d="M411.826,61.217V16.696C411.826,7.473,404.348,0,395.13,0v77.913
	C404.348,77.913,411.826,70.44,411.826,61.217z"/>
<path style="fill:#CFD6E6;" d="M461.913,144.696H328.348c-9.217,0-16.696-7.473-16.696-16.696V61.217
	c0-9.223,7.479-16.696,16.696-16.696h133.565c9.217,0,16.696,7.473,16.696,16.696V128
	C478.609,137.223,471.13,144.696,461.913,144.696z"/>
<path style="fill:#B8BFCC;" d="M461.913,44.522H395.13v100.174h66.783c9.217,0,16.696-7.473,16.696-16.696V61.217
	C478.609,51.995,471.13,44.522,461.913,44.522z"/>
<path style="fill:#E6EEFF;" d="M495.304,512H278.261V128c0-9.22,7.475-16.696,16.696-16.696h200.348
	c9.22,0,16.696,7.475,16.696,16.696v367.304C512,504.525,504.525,512,495.304,512z"/>
<path style="fill:#DAE2F2;" d="M495.304,111.304H395.13V512h100.174c9.217,0,16.696-7.473,16.696-16.696V128
	C512,118.777,504.521,111.304,495.304,111.304z"/>
<g>
	<rect x="66.783" y="144.696" style="fill:#4BB8E6;" width="33.391" height="33.391"/>
	<rect x="66.783" y="211.478" style="fill:#4BB8E6;" width="33.391" height="33.391"/>
	<rect x="66.783" y="278.261" style="fill:#4BB8E6;" width="33.391" height="33.391"/>
	<rect x="66.783" y="345.043" style="fill:#4BB8E6;" width="33.391" height="33.391"/>
	<rect x="66.783" y="411.826" style="fill:#4BB8E6;" width="33.391" height="33.391"/>
	<rect x="205.913" y="278.261" style="fill:#4BB8E6;" width="33.391" height="33.391"/>
	<rect x="205.913" y="345.043" style="fill:#4BB8E6;" width="33.391" height="33.391"/>
	<rect x="205.913" y="411.826" style="fill:#4BB8E6;" width="33.391" height="33.391"/>
	<rect x="411.826" y="211.478" style="fill:#4BB8E6;" width="33.391" height="33.391"/>
	<rect x="411.826" y="278.261" style="fill:#4BB8E6;" width="33.391" height="33.391"/>
	<rect x="411.826" y="345.043" style="fill:#4BB8E6;" width="33.391" height="33.391"/>
	<rect x="411.826" y="411.826" style="fill:#4BB8E6;" width="33.391" height="33.391"/>
</g>
<g>
	<rect x="345.043" y="211.478" style="fill:#54CCFF;" width="33.391" height="33.391"/>
	<rect x="345.043" y="278.261" style="fill:#54CCFF;" width="33.391" height="33.391"/>
	<rect x="345.043" y="345.043" style="fill:#54CCFF;" width="33.391" height="33.391"/>
	<rect x="345.043" y="411.826" style="fill:#54CCFF;" width="33.391" height="33.391"/>
</g>
<g>
</g>
<g>
</g>
<g>
</g>
<g>
</g>
<g>
</g>
<g>
</g>
<g>
</g>
<g>
</g>
<g>
</g>
<g>
</g>
<g>
</g>
<g>
</g>
<g>
</g>
<g>
</g>
<g>
</g>
</svg>
